# xmcd
#
# Track frame offsets:
#	150
#	33454
#	53949
#	129465
#	166458
#	214959
#	250057
#	292757
#	315234
#
# Disc length: 4476 seconds
#
# Revision: 0
# Processed by: cddbd v1.5.2PL0 Copyright (c) Steve Scherf et al.
# Submitted via: audiograbber 1.83.01
#
DISCID=7a117a09
DTITLE=Grateful Dead - 93-06-19 Soldier Field, Chicago IL
DYEAR=1900
DGENRE=
TTITLE0=Truckin'
TTITLE1=Smokestack Lightning
TTITLE2=Drums
TTITLE3=Space
TTITLE4=The Other One
TTITLE5=Standing On The Moon
TTITLE6=Throwing Stones
TTITLE7=One More Saturday Night
TTITLE8=Rain
EXTD=
EXTT0=
EXTT1=
EXTT2=
EXTT3=
EXTT4=
EXTT5=
EXTT6=
EXTT7=
EXTT8=
PLAYORDER=
